<?xml version="1.0" encoding="utf-8"?>
<!-- Generator: Adobe Illustrator 25.2.1, SVG Export Plug-In . SVG Version: 6.00 Build 0)  -->
<svg version="1.1" id="Layer_2" xmlns="http://www.w3.org/2000/svg" xmlns:xlink="http://www.w3.org/1999/xlink" x="0px" y="0px"
	 viewBox="0 0 764 488" style="enable-background:new 0 0 764 488;" xml:space="preserve">
<style type="text/css">
	
		.st0{opacity:7.000000e-02;fill:none;stroke:#000000;stroke-width:30;stroke-linecap:round;stroke-linejoin:round;enable-background:new    ;}
	.st1{fill:none;stroke:#000000;stroke-width:30;stroke-linecap:round;stroke-linejoin:round;}
</style>
<path class="st0" d="M34,191.9l70,247.9l0,0c0.3,1.4,2.5,8.3,3.1,8.4c-3.5-37.8-7.3-81,4.1-117.3c3.2-10.4,7.9-20.7,15.9-28
	c8-7.3,19.8-12.2,29.6-7.6c11.7,5.3,16.3,18.1,20.9,28.9c9,21.5,8.4,49.8,27.4,63.4c14.1,10.2,25,6.6,33.3,3.5
	c13.8-5.2,22.8-23.2,27.9-31.5c1.6-2.6,7.1-11.2,14.2-33.9c7.1-22.6,9-50.3-1.9-71.4c-4.9-9.5-14.9-16.5-25.6-16.9
	c-11.2-0.4-20.8,9.5-23.6,20.3c-2.8,10.9-0.3,22.3,3.2,32.9c6.3,19.3,14.6,41,30.4,53.7c15.8,12.8,42,19.2,60.3,10.6
	c17.2-8,25-30.1,32.3-47.7c26.8-65,30.2-147.8-8.6-206.6c-4.6-7.1-8.3-13.1-15.8-16.9c-8.8-4.2-19.3-1.9-25.6,5.5
	c-5.6,6.5-6.1,15.7-5.5,24.3c3,43.9,20,100.4,43.5,137.7c8.5,13.4,13.4,22,20.2,31.9c3.3,4.8,7.9,8.6,12.2,12.7
	c11.1,10.3,40.1,30.7,62.1,21c21.1-9.4,26.5-29.5,27.2-31c5.7-14,12-30.4,14.7-45.2c1.8-10.1,4.5-49.2,3.8-61.8
	c-2.3-43.2-9.8-67.2-24.6-99.7c-4.1-9-10.9-18.8-19.3-24.1c-8.8-5.5-18.6-3.4-24.2,2.4c-2.4,2.5-4.2,5.7-5.1,9.1
	c-9.7,38.9,3.3,78.6,16.1,116.1c4.3,12.7,8.7,25.5,14.9,37.4c9.1,18,22,33.8,37.7,46.5c7.5,6.1,22,13,31.6,12.8
	c13.4-0.3,25.3-5.6,33.6-15.8c8.3-10.1,11.7-29,14.7-41.7c3.9-16.2,4.8-30.7,8.2-47c3.4-16.9,6-30.9,15.8-43.6
	c10.1-13.2,28.2-15,43.3-10.2c15.2,4.8,26.8,18.4,32.6,33.4c5.4,13.8,9.8,30,7.9,44.7s-10.1,34.4-23.9,40
	c-14.6,5.9-35.6,2.5-48.1-7.6c-12.7-10.2-21.4-30.7-21.9-32.3c-6.2-16.6-4.2-28-3.2-35.1c1.7-11.7,7.8-26.3,14.9-34.9
	c10.8-13,27.5-16.1,36.5-22.6c28-19.8,44.5-35.1,59.1-71.2"/>
<circle class="st1" cx="727.8" cy="204.1" r="2.2"/>
</svg>
